<?xml version="1.0" encoding="utf-8"?>
<!-- Generator: Adobe Illustrator 17.0.2, SVG Export Plug-In . SVG Version: 6.00 Build 0)  -->
<!DOCTYPE svg PUBLIC "-//W3C//DTD SVG 1.1//EN" "http://www.w3.org/Graphics/SVG/1.1/DTD/svg11.dtd">
<svg version="1.1" xmlns="http://www.w3.org/2000/svg" xmlns:xlink="http://www.w3.org/1999/xlink" x="0px" y="0px" width="50px"
	 height="50px" viewBox="0 0 50 50" enable-background="new 0 0 50 50" xml:space="preserve">
<g id="Layer_1">
	<circle fill="#E67F0E" stroke="#E67F0E" stroke-miterlimit="10" cx="24.833" cy="24.5" r="23.667"/>
</g>
<g id="Layer_2">
	<g>
		<path fill="#FFFFFF" d="M36.331,15.128H13.669c-0.438,0-0.793,0.355-0.793,0.794v14.521c0,0.438,0.355,0.794,0.793,0.794h12.137
			v5.158c0,0.321,0.193,0.61,0.49,0.733c0.098,0.041,0.201,0.06,0.303,0.06c0.206,0,0.409-0.081,0.561-0.233l5.759-5.719h3.412
			c0.438,0,0.794-0.355,0.794-0.794V15.921C37.125,15.483,36.769,15.128,36.331,15.128L36.331,15.128z"/>
	</g>
</g>
</svg>
