<?xml version="1.0" encoding="utf-8"?>
<!-- Generator: Adobe Illustrator 17.0.2, SVG Export Plug-In . SVG Version: 6.00 Build 0)  -->
<!DOCTYPE svg PUBLIC "-//W3C//DTD SVG 1.1//EN" "http://www.w3.org/Graphics/SVG/1.1/DTD/svg11.dtd">
<svg version="1.1" id="Layer_1" xmlns="http://www.w3.org/2000/svg" xmlns:xlink="http://www.w3.org/1999/xlink" x="0px" y="0px"
	 width="50px" height="50px" viewBox="0 0 50 50" enable-background="new 0 0 50 50" xml:space="preserve">
<circle fill="#E67F0E" stroke="#E67F0E" stroke-miterlimit="10" cx="24.833" cy="24.5" r="23.667"/>
<g>
	<g id="icons_23_">
		<g>
			<path fill="#FFFFFF" d="M41.833,19.776c0-0.332-0.269-0.601-0.602-0.601c-0.229,0-0.428,0.128-0.529,0.316c0,0,0,0,0,0
				c0,0-1.816,3.18-1.873,3.28c-0.057,0.1-0.071,0.138-0.192,0.036c-0.123-0.09-0.364-0.205-0.802-0.212c-0.004,0-0.007,0-0.011,0
				c-0.003,0-0.007,0-0.011,0c-0.438,0.007-0.68,0.122-0.802,0.212c-0.12,0.103-0.135,0.064-0.192-0.036
				c-0.042-0.073-1.042-1.819-1.584-2.765c0.439-0.746,0.969-1.718,1.046-1.862c0.003-0.005,0.005-0.009,0.008-0.014
				c0.001-0.003,0.003-0.005,0.003-0.005l0,0c0.049-0.095,0.077-0.202,0.077-0.316c0-0.38-0.308-0.687-0.687-0.687
				c-0.252,0-0.471,0.136-0.591,0.338l0,0c-0.008,0.014-0.016,0.029-0.024,0.044c-0.107,0.196-2.026,3.583-2.053,3.631
				c-0.065,0.114-0.082,0.158-0.219,0.041c-0.14-0.103-0.416-0.234-0.917-0.243c-0.004,0-0.008,0-0.013,0c-0.004,0-0.008,0-0.012,0
				c-0.501,0.009-0.777,0.14-0.917,0.243c-0.138,0.117-0.154,0.074-0.219-0.041c-0.052-0.09-1.388-2.423-1.953-3.409
				c0.434-0.739,0.998-1.766,0.998-1.766l0,0c0.065-0.113,0.103-0.245,0.103-0.385c0-0.427-0.346-0.773-0.773-0.773
				c-0.294,0-0.55,0.164-0.68,0.406c-0.051,0.09-2.339,4.109-2.412,4.237c-0.074,0.129-0.092,0.178-0.248,0.046
				c-0.158-0.116-0.47-0.264-1.036-0.274c-0.002,0-0.003,0-0.005,0c-0.002,0-0.003,0-0.005,0c-0.566,0.01-0.878,0.158-1.036,0.274
				c-0.155,0.133-0.174,0.083-0.248-0.046c-0.073-0.128-2.361-4.147-2.412-4.237c-0.131-0.242-0.386-0.406-0.68-0.406
				c-0.427,0-0.773,0.346-0.773,0.773c0,0.14,0.038,0.271,0.103,0.385l0,0c0,0,0.565,1.027,0.998,1.766
				c-0.565,0.986-1.902,3.319-1.953,3.409c-0.066,0.114-0.082,0.158-0.219,0.041c-0.14-0.103-0.416-0.234-0.917-0.243
				c-0.004,0-0.008,0-0.012,0c-0.004,0-0.008,0-0.013,0c-0.501,0.009-0.777,0.14-0.917,0.243c-0.138,0.117-0.154,0.074-0.219-0.041
				c-0.027-0.048-1.946-3.434-2.053-3.631c-0.007-0.015-0.015-0.029-0.024-0.044l0,0c-0.12-0.202-0.339-0.338-0.591-0.338
				c-0.38,0-0.687,0.308-0.687,0.687c0,0.114,0.028,0.221,0.077,0.316l0,0c0,0,0.001,0.002,0.003,0.005
				c0.002,0.005,0.005,0.009,0.008,0.014c0.078,0.143,0.608,1.116,1.046,1.862c-0.542,0.946-1.542,2.692-1.584,2.765
				c-0.057,0.1-0.072,0.138-0.192,0.036c-0.123-0.09-0.364-0.205-0.802-0.212c-0.004,0-0.007,0-0.011,0c-0.004,0-0.007,0-0.011,0
				c-0.438,0.007-0.68,0.122-0.802,0.212c-0.121,0.103-0.135,0.064-0.192-0.036c-0.057-0.1-1.873-3.28-1.873-3.28l0,0
				c-0.102-0.188-0.301-0.316-0.529-0.316c-0.332,0-0.601,0.269-0.601,0.601c0,0.103,0.026,0.199,0.071,0.284l0,0l0.001,0.001
				c0.002,0.003,0.004,0.006,0.005,0.009l2.341,4.014c0,0,0.136,0.206,0.136,0.565c0,0.359,0,8.922,0,8.922
				c0,0.346,0.281,0.627,0.627,0.627c0.346,0,0.627-0.281,0.627-0.627c0,0,0-4.217,0-4.425c0-0.108,0.103-0.174,0.202-0.177
				c0.099,0.003,0.202,0.069,0.202,0.177c0,0.208,0,4.425,0,4.425c0,0.347,0.281,0.627,0.627,0.627s0.627-0.281,0.627-0.627
				c0,0,0-8.563,0-8.922c0-0.36,0.136-0.565,0.136-0.565s1.035-1.762,1.698-2.89c0.469,0.796,0.851,1.442,0.851,1.442
				s0.155,0.235,0.155,0.646c0,0.411,0,10.2,0,10.2c0,0.396,0.321,0.717,0.716,0.717c0.396,0,0.717-0.321,0.717-0.717
				c0,0,0-4.821,0-5.059c0-0.124,0.118-0.199,0.231-0.202c0.113,0.003,0.231,0.078,0.231,0.202c0,0.238,0,5.059,0,5.059
				c0,0.396,0.321,0.717,0.717,0.717c0.396,0,0.717-0.321,0.717-0.717c0,0,0-9.789,0-10.2c0-0.411,0.155-0.646,0.155-0.646
				s1.344-2.287,2.084-3.548c0.635,1.08,1.206,2.052,1.206,2.052s0.175,0.266,0.175,0.73c0,0.464,0,11.519,0,11.519
				c0,0.447,0.362,0.81,0.809,0.81c0.447,0,0.809-0.362,0.809-0.81c0,0,0-5.444,0-5.713c0-0.136,0.126-0.22,0.251-0.227
				c0.125,0.007,0.251,0.091,0.251,0.227c0,0.269,0,5.713,0,5.713c0,0.448,0.362,0.81,0.809,0.81c0.447,0,0.809-0.363,0.809-0.81
				c0,0,0-11.055,0-11.519s0.175-0.73,0.175-0.73s0.571-0.972,1.206-2.052c0.74,1.26,2.084,3.548,2.084,3.548
				s0.155,0.235,0.155,0.646c0,0.411,0,10.2,0,10.2c0,0.396,0.321,0.717,0.717,0.717c0.396,0,0.717-0.321,0.717-0.717
				c0,0,0-4.821,0-5.059c0-0.124,0.117-0.199,0.231-0.202c0.113,0.003,0.231,0.078,0.231,0.202c0,0.238,0,5.059,0,5.059
				c0,0.396,0.321,0.717,0.717,0.717c0.396,0,0.716-0.321,0.716-0.717c0,0,0-9.789,0-10.2c0-0.411,0.155-0.646,0.155-0.646
				s0.382-0.646,0.851-1.442c0.663,1.128,1.698,2.89,1.698,2.89s0.136,0.206,0.136,0.565c0,0.359,0,8.922,0,8.922
				c0,0.346,0.281,0.627,0.627,0.627c0.346,0,0.627-0.281,0.627-0.627c0,0,0-4.217,0-4.425c0-0.108,0.103-0.174,0.202-0.177
				c0.099,0.003,0.202,0.069,0.202,0.177c0,0.208,0,4.425,0,4.425c0,0.347,0.281,0.627,0.627,0.627c0.346,0,0.627-0.281,0.627-0.627
				c0,0,0-8.563,0-8.922c0-0.36,0.136-0.565,0.136-0.565l2.341-4.014c0.002-0.003,0.004-0.006,0.005-0.009l0.001-0.001l0,0
				C41.807,19.975,41.833,19.879,41.833,19.776z"/>
			<path fill="#FFFFFF" d="M31.86,20.539L31.86,20.539c0.001,0,0.002,0,0.002,0c0.001,0,0.002,0,0.003,0v0
				c0.921-0.016,1.662-0.767,1.662-1.692s-0.741-1.675-1.662-1.692v0c-0.001,0-0.002,0-0.003,0c-0.001,0-0.002,0-0.002,0v0
				c-0.921,0.016-1.662,0.767-1.662,1.692S30.94,20.523,31.86,20.539z"/>
			<path fill="#FFFFFF" d="M37.821,22.25L37.821,22.25c0.001,0,0.001,0,0.001,0c0.001,0,0.002,0,0.002,0l0.001,0
				c0.805-0.014,1.454-0.671,1.454-1.48c0-0.809-0.648-1.465-1.454-1.48v0c0,0-0.001,0-0.002,0c0,0-0.001,0-0.002,0v0
				c-0.805,0.014-1.454,0.671-1.454,1.48C36.368,21.579,37.016,22.236,37.821,22.25z"/>
			<path fill="#FFFFFF" d="M24.708,18.773c1.037-0.022,1.87-0.868,1.87-1.91c0-1.042-0.834-1.888-1.87-1.91
				c-1.037,0.022-1.87,0.868-1.87,1.91C22.838,17.904,23.672,18.751,24.708,18.773z"/>
			<path fill="#FFFFFF" d="M17.551,20.539L17.551,20.539c0.001,0,0.002,0,0.003,0c0.001,0,0.002,0,0.002,0v0
				c0.921-0.016,1.662-0.767,1.662-1.692s-0.741-1.675-1.662-1.692v0c-0.001,0-0.002,0-0.002,0c-0.001,0-0.002,0-0.003,0v0
				c-0.921,0.016-1.662,0.767-1.662,1.692C15.89,19.772,16.631,20.523,17.551,20.539z"/>
			<path fill="#FFFFFF" d="M11.591,22.25L11.591,22.25c0.001,0,0.001,0,0.002,0c0,0,0.002,0,0.002,0v0
				c0.805-0.014,1.454-0.671,1.454-1.48c0-0.809-0.648-1.465-1.454-1.48v0c-0.001,0-0.001,0-0.001,0c-0.001,0-0.002,0-0.003,0v0
				c-0.805,0.014-1.454,0.671-1.454,1.48C10.138,21.579,10.786,22.236,11.591,22.25z"/>
		</g>
	</g>
</g>
</svg>
