<?xml version="1.0" encoding="utf-8"?>
<!-- Generator: Adobe Illustrator 17.0.2, SVG Export Plug-In . SVG Version: 6.00 Build 0)  -->
<!DOCTYPE svg PUBLIC "-//W3C//DTD SVG 1.1//EN" "http://www.w3.org/Graphics/SVG/1.1/DTD/svg11.dtd">
<svg version="1.1" id="Layer_1" xmlns="http://www.w3.org/2000/svg" xmlns:xlink="http://www.w3.org/1999/xlink" x="0px" y="0px"
	 width="50px" height="50px" viewBox="0 0 50 50" enable-background="new 0 0 50 50" xml:space="preserve">
<g id="Layer_1_1_">
	<circle fill="#E67F0E" stroke="#E67F0E" stroke-miterlimit="10" cx="24.833" cy="24.5" r="23.667"/>
</g>
<g id="Layer_2">
	<g>
		<path fill="#FFFFFF" d="M33.687,17.85c0-0.824-0.674-1.495-1.498-1.495c-0.824,0-1.523,0.67-1.523,1.495v7.243
			c0,0.292-0.219,0.513-0.511,0.513c-0.291,0-0.51-0.22-0.51-0.512V11.801c0,0,0.035-1.573-1.495-1.573s-1.495,1.575-1.495,1.575
			v12.341c0.002,0.051-0.004,0.219-0.131,0.355c-0.065,0.069-0.184,0.152-0.385,0.152c-0.202,0-0.322-0.082-0.387-0.151
			c-0.126-0.134-0.132-0.299-0.13-0.348V9.914c0-0.824-0.67-1.495-1.495-1.495c-0.824,0-1.495,0.67-1.495,1.495v14.263
			c0.003,0.055,0,0.225-0.126,0.363c-0.065,0.071-0.185,0.155-0.39,0.155c-0.201,0-0.32-0.083-0.384-0.152
			c-0.127-0.137-0.132-0.308-0.129-0.361l-0.003-12.445c0-0.824-0.67-1.495-1.495-1.495c-0.824,0-1.495,0.67-1.495,1.495V27.85
			c0.002,0.058-0.001,0.275-0.15,0.432c-0.063,0.067-0.177,0.146-0.359,0.146c-0.184,0-0.297-0.08-0.359-0.148
			c-0.145-0.157-0.146-0.372-0.143-0.433v-5.073c0-0.838-0.682-1.519-1.519-1.519c-0.838,0-1.519,0.681-1.519,1.519v7.636
			c0,4.226,1.07,5.723,3.154,7.616c1.801,1.636,3.898,2.466,6.232,2.466h0.045c3.752-0.017,6.663-1.657,8.651-4.873
			c0.691-1.117,1.041-2.447,1.043-3.955V17.85z M27.005,33.954c-0.669,0.448-1.301,0.873-1.433,1.333
			c-0.049,0.172-0.205,0.292-0.384,0.296c-0.003,0-0.005,0-0.008,0c-0.176,0-0.332-0.113-0.387-0.281
			c-0.157-0.479-0.789-0.902-1.457-1.351c-1.19-0.799-2.671-1.794-2.671-3.807c0-1.541,1.254-2.795,2.795-2.795
			c0.634,0,1.232,0.208,1.72,0.592c0.488-0.384,1.087-0.592,1.721-0.592c1.541,0,2.795,1.254,2.795,2.795
			C29.696,32.15,28.204,33.151,27.005,33.954z"/>
	</g>
</g>
</svg>
