<?xml version="1.0" encoding="utf-8"?>
<!-- Generator: Adobe Illustrator 17.0.2, SVG Export Plug-In . SVG Version: 6.00 Build 0)  -->
<!DOCTYPE svg PUBLIC "-//W3C//DTD SVG 1.1//EN" "http://www.w3.org/Graphics/SVG/1.1/DTD/svg11.dtd">
<svg version="1.1" id="Layer_1" xmlns="http://www.w3.org/2000/svg" xmlns:xlink="http://www.w3.org/1999/xlink" x="0px" y="0px"
	 width="50px" height="50px" viewBox="0 0 50 50" enable-background="new 0 0 50 50" xml:space="preserve">
<g>
	<path fill="#D8D8D8" d="M30.639,21.351c0.01,0.141,0.01,0.281,0.01,0.422c0,4.288-3.263,9.227-9.227,9.227
		c-1.838,0-3.544-0.532-4.98-1.456c0.262,0.03,0.513,0.04,0.783,0.04c1.517,0,2.912-0.512,4.026-1.385
		c-1.426-0.031-2.62-0.965-3.032-2.25C18.42,25.98,18.62,26,18.831,26c0.291,0,0.583-0.04,0.854-0.11
		c-1.485-0.302-2.601-1.606-2.601-3.183c0-0.01,0-0.03,0-0.04c0.432,0.241,0.935,0.392,1.466,0.412
		c-0.873-0.582-1.445-1.576-1.445-2.701c0-0.603,0.16-1.155,0.441-1.637c1.597,1.968,3.996,3.253,6.688,3.394
		c-0.051-0.241-0.081-0.492-0.081-0.743c0-1.787,1.446-3.243,3.243-3.243c0.934,0,1.777,0.392,2.37,1.024
		c0.732-0.14,1.436-0.412,2.058-0.783c-0.241,0.753-0.753,1.385-1.426,1.787c0.653-0.07,1.285-0.251,1.868-0.502
		C31.823,20.317,31.271,20.89,30.639,21.351z"/>
</g>
</svg>
