<?xml version="1.0" encoding="utf-8"?>
<!-- Generator: Adobe Illustrator 17.0.2, SVG Export Plug-In . SVG Version: 6.00 Build 0)  -->
<!DOCTYPE svg PUBLIC "-//W3C//DTD SVG 1.1//EN" "http://www.w3.org/Graphics/SVG/1.1/DTD/svg11.dtd">
<svg version="1.1" id="Layer_1" xmlns="http://www.w3.org/2000/svg" xmlns:xlink="http://www.w3.org/1999/xlink" x="0px" y="0px"
	 width="50px" height="50px" viewBox="0 0 50 50" enable-background="new 0 0 50 50" xml:space="preserve">
<g>
	<path fill="#D8D8D8" d="M33.421,28.557c-0.211,0.984-0.994,1.707-1.938,1.817c-2.229,0.251-4.488,0.251-6.737,0.251
		s-4.508,0-6.737-0.251c-0.943-0.11-1.727-0.833-1.947-1.817c-0.312-1.396-0.312-2.922-0.312-4.357s0-2.962,0.321-4.357
		c0.221-0.984,0.994-1.707,1.938-1.817c2.229-0.251,4.488-0.251,6.737-0.251s4.508,0,6.737,0.251
		c0.943,0.11,1.727,0.833,1.947,1.817c0.312,1.396,0.312,2.922,0.312,4.357S33.742,27.161,33.421,28.557z M28.301,23.657
		l-5.141-3.213c-0.201-0.131-0.452-0.131-0.653-0.021c-0.2,0.111-0.331,0.332-0.331,0.562v6.426c0,0.23,0.131,0.451,0.331,0.562
		c0.101,0.05,0.201,0.08,0.312,0.08c0.12,0,0.241-0.03,0.342-0.101l5.141-3.213c0.19-0.11,0.301-0.321,0.301-0.542
		S28.491,23.768,28.301,23.657z"/>
</g>
</svg>
