<?xml version="1.0" encoding="utf-8"?>
<!-- Generator: Adobe Illustrator 17.0.2, SVG Export Plug-In . SVG Version: 6.00 Build 0)  -->
<!DOCTYPE svg PUBLIC "-//W3C//DTD SVG 1.1//EN" "http://www.w3.org/Graphics/SVG/1.1/DTD/svg11.dtd">
<svg version="1.1" id="Layer_1" xmlns="http://www.w3.org/2000/svg" xmlns:xlink="http://www.w3.org/1999/xlink" x="0px" y="0px"
	 width="50px" height="50px" viewBox="0 0 50 50" enable-background="new 0 0 50 50" xml:space="preserve">
<g>
	<defs>
		<rect id="SVGID_1_" x="-487" y="-382" width="1024" height="809"/>
	</defs>
	<clipPath id="SVGID_2_">
		<use xlink:href="#SVGID_1_"  overflow="visible"/>
	</clipPath>
	<g clip-path="url(#SVGID_2_)">
		<defs>
			<rect id="SVGID_3_" x="363" y="319.312" width="51" height="112"/>
		</defs>
		<clipPath id="SVGID_4_">
			<use xlink:href="#SVGID_3_"  overflow="visible"/>
		</clipPath>
		<path clip-path="url(#SVGID_4_)" fill="#333333" d="M388.37,395.256h-0.879c-0.689,0-0.818,0.33-0.818,0.806v1.058h1.641
			l-0.218,1.658h-1.422v4.25h-1.714v-4.25h-1.428v-1.658h1.428V395.9c0-1.417,0.868-2.19,2.134-2.19
			c0.605,0,1.126,0.045,1.277,0.067V395.256z"/>
	</g>
</g>
<g>
	<defs>
		<rect id="SVGID_5_" x="-487" y="-382" width="1024" height="809"/>
	</defs>
	<clipPath id="SVGID_6_">
		<use xlink:href="#SVGID_5_"  overflow="visible"/>
	</clipPath>
	<g clip-path="url(#SVGID_6_)">
		<defs>
			<rect id="SVGID_7_" x="396" y="320.312" width="57" height="112"/>
		</defs>
		<clipPath id="SVGID_8_">
			<use xlink:href="#SVGID_7_"  overflow="visible"/>
		</clipPath>
		<path clip-path="url(#SVGID_8_)" fill="#333333" d="M424.165,397.93c0.006,0.078,0.006,0.157,0.006,0.235
			c0,2.391-1.82,5.146-5.146,5.146c-1.025,0-1.977-0.297-2.778-0.812c0.146,0.017,0.286,0.022,0.437,0.022
			c0.846,0,1.624-0.286,2.246-0.773c-0.795-0.017-1.462-0.538-1.691-1.254c0.112,0.017,0.224,0.028,0.342,0.028
			c0.162,0,0.325-0.022,0.476-0.062c-0.829-0.168-1.45-0.896-1.45-1.775c0-0.006,0-0.017,0-0.022
			c0.241,0.134,0.521,0.218,0.818,0.23c-0.487-0.325-0.806-0.879-0.806-1.506c0-0.336,0.09-0.644,0.246-0.913
			c0.89,1.098,2.229,1.814,3.73,1.893c-0.028-0.134-0.045-0.274-0.045-0.414c0-0.997,0.806-1.809,1.809-1.809
			c0.521,0,0.991,0.218,1.322,0.571c0.409-0.078,0.801-0.23,1.148-0.437c-0.134,0.42-0.42,0.773-0.795,0.997
			c0.364-0.039,0.717-0.14,1.042-0.28C424.826,397.353,424.518,397.673,424.165,397.93z"/>
	</g>
</g>
<g>
	<defs>
		<rect id="SVGID_9_" x="-487" y="-382" width="1024" height="809"/>
	</defs>
	<clipPath id="SVGID_10_">
		<use xlink:href="#SVGID_9_"  overflow="visible"/>
	</clipPath>
	<g clip-path="url(#SVGID_10_)">
		<defs>
			<rect id="SVGID_11_" x="435" y="320.312" width="58" height="112"/>
		</defs>
		<clipPath id="SVGID_12_">
			<use xlink:href="#SVGID_11_"  overflow="visible"/>
		</clipPath>
		<path clip-path="url(#SVGID_12_)" fill="#333333" d="M464.856,402.158c-0.118,0.549-0.554,0.952-1.081,1.014
			c-1.243,0.14-2.503,0.14-3.758,0.14s-2.514,0-3.758-0.14c-0.526-0.062-0.963-0.465-1.086-1.014
			c-0.174-0.778-0.174-1.63-0.174-2.43c0-0.801,0-1.652,0.179-2.43c0.123-0.549,0.554-0.952,1.081-1.014
			c1.243-0.14,2.503-0.14,3.758-0.14s2.514,0,3.758,0.14c0.526,0.062,0.963,0.465,1.086,1.014c0.174,0.778,0.174,1.63,0.174,2.43
			C465.035,400.529,465.035,401.38,464.856,402.158z M462,399.425l-2.867-1.792c-0.112-0.073-0.252-0.073-0.364-0.011
			c-0.112,0.062-0.185,0.185-0.185,0.314v3.584c0,0.129,0.073,0.252,0.185,0.314c0.056,0.028,0.112,0.045,0.174,0.045
			c0.067,0,0.134-0.017,0.19-0.056L462,400.03c0.106-0.062,0.168-0.179,0.168-0.302S462.106,399.487,462,399.425z"/>
	</g>
</g>
<g>
	<defs>
		<rect id="SVGID_13_" x="-487" y="-382" width="1024" height="809"/>
	</defs>
	<clipPath id="SVGID_14_">
		<use xlink:href="#SVGID_13_"  overflow="visible"/>
	</clipPath>
	<g clip-path="url(#SVGID_14_)">
		<defs>
			<rect id="SVGID_15_" x="363" y="319.312" width="51" height="112"/>
		</defs>
		<clipPath id="SVGID_16_">
			<use xlink:href="#SVGID_15_"  overflow="visible"/>
		</clipPath>
		<path clip-path="url(#SVGID_16_)" fill="#333333" d="M388.37,395.256h-0.879c-0.689,0-0.818,0.33-0.818,0.806v1.058h1.641
			l-0.218,1.658h-1.422v4.25h-1.714v-4.25h-1.428v-1.658h1.428V395.9c0-1.417,0.868-2.19,2.134-2.19
			c0.605,0,1.126,0.045,1.277,0.067V395.256z"/>
	</g>
</g>
<g>
	<defs>
		<rect id="SVGID_17_" x="-487" y="-382" width="1024" height="809"/>
	</defs>
	<clipPath id="SVGID_18_">
		<use xlink:href="#SVGID_17_"  overflow="visible"/>
	</clipPath>
	<g clip-path="url(#SVGID_18_)">
		<defs>
			<rect id="SVGID_19_" x="396" y="320.312" width="57" height="112"/>
		</defs>
		<clipPath id="SVGID_20_">
			<use xlink:href="#SVGID_19_"  overflow="visible"/>
		</clipPath>
		<path clip-path="url(#SVGID_20_)" fill="#333333" d="M424.165,397.93c0.006,0.078,0.006,0.157,0.006,0.235
			c0,2.391-1.82,5.146-5.146,5.146c-1.025,0-1.977-0.297-2.778-0.812c0.146,0.017,0.286,0.022,0.437,0.022
			c0.846,0,1.624-0.286,2.246-0.773c-0.795-0.017-1.462-0.538-1.691-1.254c0.112,0.017,0.224,0.028,0.342,0.028
			c0.162,0,0.325-0.022,0.476-0.062c-0.829-0.168-1.45-0.896-1.45-1.775c0-0.006,0-0.017,0-0.022
			c0.241,0.134,0.521,0.218,0.818,0.23c-0.487-0.325-0.806-0.879-0.806-1.506c0-0.336,0.09-0.644,0.246-0.913
			c0.89,1.098,2.229,1.814,3.73,1.893c-0.028-0.134-0.045-0.274-0.045-0.414c0-0.997,0.806-1.809,1.809-1.809
			c0.521,0,0.991,0.218,1.322,0.571c0.409-0.078,0.801-0.23,1.148-0.437c-0.134,0.42-0.42,0.773-0.795,0.997
			c0.364-0.039,0.717-0.14,1.042-0.28C424.826,397.353,424.518,397.673,424.165,397.93z"/>
	</g>
</g>
<g>
	<defs>
		<rect id="SVGID_21_" x="-487" y="-382" width="1024" height="809"/>
	</defs>
	<clipPath id="SVGID_22_">
		<use xlink:href="#SVGID_21_"  overflow="visible"/>
	</clipPath>
	<g clip-path="url(#SVGID_22_)">
		<defs>
			<rect id="SVGID_23_" x="435" y="320.312" width="58" height="112"/>
		</defs>
		<clipPath id="SVGID_24_">
			<use xlink:href="#SVGID_23_"  overflow="visible"/>
		</clipPath>
		<path clip-path="url(#SVGID_24_)" fill="#333333" d="M464.856,402.158c-0.118,0.549-0.554,0.952-1.081,1.014
			c-1.243,0.14-2.503,0.14-3.758,0.14s-2.514,0-3.758-0.14c-0.526-0.062-0.963-0.465-1.086-1.014
			c-0.174-0.778-0.174-1.63-0.174-2.43c0-0.801,0-1.652,0.179-2.43c0.123-0.549,0.554-0.952,1.081-1.014
			c1.243-0.14,2.503-0.14,3.758-0.14s2.514,0,3.758,0.14c0.526,0.062,0.963,0.465,1.086,1.014c0.174,0.778,0.174,1.63,0.174,2.43
			C465.035,400.529,465.035,401.38,464.856,402.158z M462,399.425l-2.867-1.792c-0.112-0.073-0.252-0.073-0.364-0.011
			c-0.112,0.062-0.185,0.185-0.185,0.314v3.584c0,0.129,0.073,0.252,0.185,0.314c0.056,0.028,0.112,0.045,0.174,0.045
			c0.067,0,0.134-0.017,0.19-0.056L462,400.03c0.106-0.062,0.168-0.179,0.168-0.302S462.106,399.487,462,399.425z"/>
	</g>
</g>
<text transform="matrix(1 0 0 1 15.4958 31.5002)" fill="#D8D8D8" font-family="'FontAwesome'" font-size="18"></text>
</svg>
